<svg width="1024" height="1024" viewBox="0 0 1024 1024" xmlns="http://www.w3.org/2000/svg" role="img" aria-label="OpenSands logo">
  <rect width="1024" height="1024" fill="none"/>
  <g fill="#050505">
    <!-- upper crescent -->
    <path d="M183 431C216 260 356 132 543 105c202-30 402 62 500 229 47 81 65 164 62 246-55-95-139-181-235-231-151-78-341-86-467-6-80 51-128 121-126 190 1 30 10 56 26 77H142C77 610 37 570 44 512c4-28 17-55 39-81z"/>
    <!-- lower crescent -->
    <path d="M52 651c53 91 139 172 241 220 166 78 362 68 482-34 63-54 92-120 74-183-9-33-31-64-65-90h176c88 0 143 44 143 118 0 114-111 220-272 260-224 56-482-10-635-162-72-72-119-157-144-129z" transform="translate(0 4)"/>
    <!-- center dot -->
    <circle cx="515" cy="506" r="95"/>
    <!-- left circuit line -->
    <circle cx="64" cy="516" r="30"/>
    <rect x="89" y="503" width="330" height="26" rx="3"/>
    <!-- right wave / circuit -->
    <circle cx="960" cy="516" r="30"/>
    <path d="M549 389c92-7 171 27 251 108 77 78 103 112 159 112h28v27h-31c-73 0-112-43-188-121-80-82-138-116-219-126z"/>
  </g>
</svg>
